Coordinates
version=1
nRows=22
nColumns=24
inDegrees=yes

Units are S.I. units (second, meters, Newtons, ...)
Angles are in degrees.

endheader
time	pelvis_tilt	pelvis_list	pelvis_rotation	pelvis_tx	pelvis_ty	pelvis_tz	hip_flexion_r	hip_adduction_r	hip_rotation_r	knee_angle_r	ankle_angle_r	subtalar_angle_r	mtp_angle_r	hip_flexion_l	hip_adduction_l	hip_rotation_l	knee_angle_l	ankle_angle_l	subtalar_angle_l	mtp_angle_l	lumbar_extension	lumbar_bending	lumbar_rotation
      3.53500000	    -11.91967404	     -2.79299021	     -6.08429638	     -1.30677400	     -0.01783452	     -0.24127880	      4.82658292	      6.37825218	      3.33507975	     -8.85304202	      6.45659940	     -6.51633762	     12.90351983	     38.44448704	     -7.66642735	     -7.64336389	    -51.04492028	     -6.39036756	     -9.59585613	      9.86592008	      6.36058260	      4.47264833	      4.80909313
      3.54000000	    -11.95304348	     -2.66831366	     -6.30390917	     -1.30008832	     -0.01858448	     -0.24104227	      4.30083773	      6.22253796	      3.45770812	     -8.58932093	      6.66314127	     -6.40568233	     12.92261791	     38.80022202	     -7.65893013	     -7.73043847	    -49.60519567	     -6.21187959	     -8.98927350	     10.18848959	      6.33790131	      4.36263223	      5.07231012
      3.54500000	    -11.97898886	     -2.54650668	     -6.52454548	     -1.29340698	     -0.01938255	     -0.24080210	      3.77066210	      6.06947087	      3.55380307	     -8.32915521	      6.88403150	     -6.30244431	     12.93776212	     39.11664008	     -7.66270844	     -7.82600806	    -48.11103160	     -6.03182743	     -8.38597128	     10.48382783	      6.31086968	      4.25330711	      5.37422512
      3.55000000	    -12.02462497	     -2.42219243	     -6.74070304	     -1.28672059	     -0.02023966	     -0.24057388	      3.26336414	      5.91350569	      3.62128446	     -8.06736583	      7.09854170	     -6.19880499	     12.94840402	     39.42452617	     -7.66949136	     -7.92490186	    -46.56426213	     -5.86625201	     -7.79262862	     10.71324332	      6.30431873	      4.14202414	      5.65795790
      3.55500000	    -12.07812116	     -2.30076764	     -6.95673930	     -1.28004288	     -0.02113199	     -0.24035593	      2.77434460	      5.76046744	      3.65950758	     -7.82088760	      7.30174205	     -6.08674790	     12.95541022	     39.70501088	     -7.68517423	     -8.03067251	    -44.95894354	     -5.69870048	     -7.22288560	     10.88080823	      6.30693693	      4.03163683	      5.94259803
      3.56000000	    -12.11597073	     -2.17245393	     -7.18817935	     -1.27339556	     -0.02202882	     -0.24012611	      2.28700946	      5.59986971	      3.65432927	     -7.60091762	      7.50648840	     -5.95980543	     12.95483079	     39.92488536	     -7.70748191	     -8.15832233	    -43.29120466	     -5.52194390	     -6.68616449	     11.00193949	      6.28523117	      3.91537367	      6.26498126
      3.56500000	    -12.17710712	     -2.04413516	     -7.40390797	     -1.26672619	     -0.02298229	     -0.23990564	      1.81987366	      5.44000271	      3.61737500	     -7.37136300	      7.70757899	     -5.82153138	     12.94996330	     40.14120529	     -7.73264899	     -8.29650558	    -41.58178922	     -5.35922220	     -6.18234234	     11.03517531	      6.29583454	      3.79491052	      6.55390977
      3.57000000	    -12.27234032	     -1.91588793	     -7.59945111	     -1.26002753	     -0.02399851	     -0.23969489	      1.38437010	      5.28303956	      3.55922299	     -7.13368134	      7.89334376	     -5.68463232	     12.94707884	     40.36703517	     -7.75938821	     -8.44226558	    -39.83731552	     -5.20753139	     -5.70374179	     10.98916851	      6.35061981	      3.67312268	      6.80030531
      3.57500000	    -12.33983157	     -1.77370978	     -7.81676428	     -1.25336096	     -0.02498554	     -0.23948114	      0.93976471	      5.10686460	      3.45666272	     -6.92336552	      8.08900944	     -5.50303913	     12.94314164	     40.51733121	     -7.78963165	     -8.63503718	    -38.04418956	     -5.03846214	     -5.26761568	     10.83903057	      6.36997143	      3.53927551	      7.10044567
      3.58000000	    -12.38169036	     -1.62055925	     -8.03612712	     -1.24673571	     -0.02594380	     -0.23925553	      0.49234539	      4.91663834	      3.27966040	     -6.74776754	      8.29676333	     -5.27773899	     12.93064228	     40.60392957	     -7.81180173	     -8.84944457	    -36.21593744	     -4.85636066	     -4.88926826	     10.49182163	      6.35455635	      3.38372283	      7.42963685
      3.58500000	    -12.44361138	     -1.45439772	     -8.23832265	     -1.24010169	     -0.02691237	     -0.23905086	      0.07215283	      4.71082447	      3.06801347	     -6.57617629	      8.49553102	     -5.01569374	     12.91085277	     40.68991049	     -7.82242103	     -9.08528128	    -34.37918652	     -4.67041606	     -4.50836146	      9.89244085	      6.36459619	      3.21499866	      7.71662841
      3.59000000	    -12.45849668	     -1.29415461	     -8.32336157	     -1.23333977	     -0.02788633	     -0.23901620	     -0.41791098	      4.49310366	      2.65095173	     -6.38260408	      8.72341833	     -4.65905852	     12.83203953	     40.72841223	     -7.74813180	     -9.24813991	    -32.60516064	     -4.16751269	     -4.04329894	      8.07018234	      6.34843820	      3.02796505	      7.84621150
      3.59500000	    -12.70953330	     -1.15913214	     -8.51852783	     -1.22672151	     -0.02911037	     -0.23876184	     -0.61524794	      4.36192664	      2.56774028	     -6.25230488	      8.81364567	     -4.64585175	     12.83081801	     40.99231929	     -7.82225889	     -9.45719916	    -30.78044593	     -4.06840280	     -3.76005563	      7.86810954	      6.55640739	      2.90627200	      8.10569342
      3.60000000	    -12.63710009	     -0.94417462	     -8.68973058	     -1.22000505	     -0.02991357	     -0.23859839	     -1.15250119	      4.06552444	      2.18011688	     -6.11399893	      9.04717667	     -4.14817991	     12.88404084	     40.85857386	     -7.76497695	     -9.79662330	    -28.97992057	     -3.65345604	     -3.40947813	      6.22902489	      6.43989809	      2.65237984	      8.37555136
      3.60500000	    -12.76688487	     -0.75310354	     -8.91976795	     -1.21334199	     -0.03095740	     -0.23835836	     -1.43405448	      3.83535347	      1.97917791	     -6.04541259	      9.19975846	     -3.86409970	     12.97521726	     40.96310895	     -7.80647340	    -10.16500718	    -27.30188730	     -3.06846895	     -2.95146773	      3.92858286	      6.53013184	      2.46014485	      8.69827762
      3.61000000	    -12.89311666	     -0.56615824	     -9.09073064	     -1.20663852	     -0.03200400	     -0.23820528	     -1.71535668	      3.60505565	      1.73781136	     -5.98676119	      9.31000901	     -3.62386455	     13.06778111	     41.05507249	     -7.80242432	    -10.47369523	    -25.60354809	     -2.83605958	     -2.78894060	      2.68406317	      6.62014836	      2.26113288	      8.94596932
      3.61500000	    -13.05719724	     -0.38182570	     -9.23576344	     -1.19990398	     -0.03310949	     -0.23814824	     -1.94381780	      3.37610150	      1.51327119	     -5.95013179	      9.38432880	     -3.43256987	     13.25430703	     41.20590347	     -7.77431205	    -10.71285836	    -24.02708574	     -2.37254179	     -2.58957009	      0.30947713	      6.74944280	      2.06972392	      9.17404352
      3.62000000	    -13.17199667	     -0.21109353	     -9.47374947	     -1.19317876	     -0.03413393	     -0.23789035	     -2.19161833	      3.16012992	      1.40034702	     -5.97738282	      9.43221898	     -3.26060288	     13.29821918	     41.27529262	     -7.85895831	    -11.19294525	    -22.45242101	     -2.32342498	     -2.44867221	     -0.03786979	      6.82461617	      1.88864067	      9.48456825
      3.62500000	    -13.18862808	      0.01053557	     -9.63854810	     -1.18624295	     -0.03507100	     -0.23779102	     -2.55047081	      2.85167971	      1.14054877	     -5.99781258	      9.52875748	     -2.93058188	     13.42138433	     41.23279043	     -7.81541075	    -11.67100216	    -20.95024457	     -2.14806291	     -2.33213645	     -0.91787521	      6.82704602	      1.63241114	      9.71211933
      3.63000000	    -13.38015585	      0.18907716	     -9.86270084	     -1.17933310	     -0.03619735	     -0.23768314	     -2.69328627	      2.61844157	      1.13647365	     -6.08074373	      9.53530340	     -2.80786951	     13.46831607	     41.39994109	     -7.87023544	    -12.12229228	    -19.55873984	     -2.17447815	     -2.34416082	     -1.28644088	      7.00835867	      1.46710259	     10.00222441
      3.63500000	    -13.37287037	      0.40657700	    -10.11111797	     -1.17235432	     -0.03708882	     -0.23761248	     -3.00325988	      2.29412153	      0.98548471	     -6.22913037	      9.58936534	     -2.52340953	     13.60487824	     41.33005953	     -7.87389759	    -12.70445467	    -18.24822982	     -2.03370642	     -2.25377708	     -1.94715737	      6.98110441	      1.23626424	     10.35541768
      3.64000000	    -13.52581074	      0.61724125	    -10.25830280	     -1.16517019	     -0.03820514	     -0.23765119	     -3.16687425	      2.00580509	      0.92591715	     -6.36686218	      9.56579016	     -2.42866713	     13.66313410	     41.47421774	     -7.83891149	    -13.22940001	    -17.05989706	     -2.03424365	     -2.20550431	     -2.25603280	      7.15788693	      1.02158109	     10.50444446
